<svg xmlns="http://www.w3.org/2000/svg" viewBox="0 0 512 512" role="img" aria-label="Fixed Flow">
  <rect width="512" height="512" rx="112" fill="#111827"/>
  <path d="M132 166c0-28.7 23.3-52 52-52h144c28.7 0 52 23.3 52 52v180c0 28.7-23.3 52-52 52H184c-28.7 0-52-23.3-52-52V166Z" fill="#F8F4E8"/>
  <path d="M178 178h156M178 230h156M178 282h96" stroke="#111827" stroke-width="28" stroke-linecap="round"/>
  <path d="M326 296c24 0 44 20 44 44s-20 44-44 44-44-20-44-44 20-44 44-44Z" fill="#4F46E5"/>
  <path d="m306 341 13 13 28-32" stroke="#F8F4E8" stroke-width="16" stroke-linecap="round" stroke-linejoin="round"/>
</svg>
